<?xml version="1.0" encoding="UTF-8"?>
<svg width="32px" height="32px" viewBox="0 0 32 32" version="1.1" xmlns="http://www.w3.org/2000/svg" xmlns:xlink="http://www.w3.org/1999/xlink">
    <!-- Generator: Sketch 52.3 (67297) - http://www.bohemiancoding.com/sketch -->
    <title>分组 11 copy</title>
    <desc>Created with Sketch.</desc>
    <g id="1-1" stroke="none" stroke-width="1" fill="none" fill-rule="evenodd">
        <g id="画板" transform="translate(-171.000000, -9.000000)">
            <g id="分组-11-copy" transform="translate(187.000000, 25.000000) rotate(-90.000000) translate(-187.000000, -25.000000) translate(171.000000, 9.000000)">
                <circle id="椭圆形" fill="#06B48D" fill-rule="nonzero" cx="16" cy="16" r="16"></circle>
                <g id="添加-(3)" transform="translate(8.533333, 8.533333)" fill="#FFFFFF" stroke="#FFFFFF" stroke-width="0.3">
                    <path d="M14.5269841,7 C15.1441404,7 15.6444444,7.29184401 15.6444444,7.65185185 C15.6444444,8.01185969 15.1441404,8.3037037 14.5269841,8.3037037 L1.11746032,8.3037037 C0.500304026,8.3037037 0,8.01185969 0,7.65185185 C0,7.29184401 0.500304026,7 1.11746032,7 L14.5269841,7 Z" id="路径"></path>
                    <path d="M8.3037037,14.5269841 C8.3037037,15.1441404 8.01185969,15.6444444 7.65185185,15.6444444 C7.29184401,15.6444444 7,15.1441404 7,14.5269841 L7,1.11746032 C7,0.500304026 7.29184401,0 7.65185185,0 C8.01185969,0 8.3037037,0.500304026 8.3037037,1.11746032 L8.3037037,14.5269841 Z" id="路径"></path>
                </g>
            </g>
        </g>
    </g>
</svg>