<?xml version="1.0" encoding="UTF-8"?>
<svg width="7px" height="10px" viewBox="0 0 7 10" version="1.1" xmlns="http://www.w3.org/2000/svg" xmlns:xlink="http://www.w3.org/1999/xlink">
    <!-- Generator: Sketch 60.1 (88133) - https://sketch.com -->
    <title>组_381_slice</title>
    <desc>Created with Sketch.</desc>
    <g id="工具页" stroke="none" stroke-width="1" fill="none" fill-rule="evenodd">
        <g id="画板" transform="translate(-312.000000, -4.000000)" fill-rule="nonzero">
            <g id="组-381" transform="translate(312.000000, 4.000000)">
                <path d="M5.9966968,8.23804222 L5.57438835,4.23188953 C5.55701886,4.06711708 5.40936365,3.94762335 5.24459119,3.96499284 C5.17626881,3.97219504 5.11248827,4.00262883 5.06390938,4.05120772 L1.48011939,7.63499771 C1.3629621,7.752155 1.3629621,7.9421045 1.48011939,8.05926179 C1.52869721,8.10783961 1.59247603,8.13827316 1.66079678,8.14547622 L5.66689522,8.56783891 C5.83166742,8.58521084 5.97932441,8.4657193 5.99669633,8.3009471 C5.99890091,8.28003676 5.99890106,8.25895259 5.9966968,8.23804222 Z" id="矩形-246" fill="#E74949" transform="translate(3.535560, 6.106673) rotate(45.000000) translate(-3.535560, -6.106673) "></path>
                <path d="M5.9966968,5.66692656 L5.57438835,1.66077388 C5.55701886,1.49600142 5.40936365,1.3765077 5.24459119,1.39387718 C5.17626881,1.40107938 5.11248827,1.43151317 5.06390938,1.48009207 L1.48011939,5.06388205 C1.3629621,5.18103935 1.3629621,5.37098885 1.48011939,5.48814614 C1.52869721,5.53672396 1.59247603,5.56715751 1.66079678,5.57436056 L5.66689522,5.99672326 C5.83166742,6.01409518 5.97932441,5.89460365 5.99669633,5.72983144 C5.99890091,5.70892111 5.99890106,5.68783694 5.9966968,5.66692656 Z" id="矩形-247" fill="#BDC2CC" transform="translate(3.535560, 3.535558) scale(1, -1) rotate(45.000000) translate(-3.535560, -3.535558) "></path>
            </g>
        </g>
    </g>
</svg>